<svg width="1000" height="1000" xmlns="http://www.w3.org/2000/svg" viewBox="0 0 640 640"><circle cx="320" cy="320" r="320" fill="#f47226"/><path d="M428.666 390.145v-26.58c16.36-5.611 28.275-23.036 28.275-43.66 0-20.624-11.914-38.098-28.275-43.66v-26.58c15.408-5.266 26.898-21.067 28.169-40.165H438.09v8.122c0 6.25-3.81 11.764-9.425 14.52v-3.79c0-5.562-4.87-10.09-10.852-10.09h-.954c-5.982 0-10.854 4.528-10.854 10.09v3.79c-5.612-2.756-9.425-8.22-9.425-14.52V209.5h-18.742c1.271 19.098 12.76 34.899 28.167 40.165v26.58c-16.308 5.562-28.273 22.987-28.273 43.66s11.912 38.098 28.273 43.66v26.58c-15.407 5.267-26.896 21.068-28.167 40.165h18.742v-8.122c0-6.25 3.813-11.764 9.425-14.52v3.79c0 5.563 4.872 10.09 10.854 10.09h.954c5.982 0 10.852-4.527 10.852-10.09v-3.79c5.614 2.756 9.425 8.22 9.425 14.52v8.122h18.744c-1.271-19.097-12.761-34.898-28.169-40.165Zm-32.085-58.624V308.24c0-6.25 3.813-11.764 9.425-14.52v3.79c0 5.562 4.872 10.09 10.854 10.09h.954c5.982 0 10.852-4.528 10.852-10.09v-3.79c5.614 2.756 9.425 8.22 9.425 14.52v23.282c0 6.252-3.81 11.765-9.425 14.521v-3.79c0-5.562-4.87-10.09-10.852-10.09h-.954c-5.982 0-10.854 4.528-10.854 10.09v3.79c-5.559-2.756-9.425-8.22-9.425-14.52Zm147.084 2.511v-28.303c16.36-5.611 28.274-23.036 28.274-43.66 0-20.624-11.914-38.098-28.274-43.66V209.5h-22.608v8.91c-16.36 5.61-28.273 23.035-28.273 43.66 0 20.623 11.912 38.097 28.273 43.66v28.302c-16.36 5.611-28.273 23.036-28.273 43.66 0 20.624 11.912 38.098 28.273 43.66v8.909h22.608v-8.909c16.36-5.612 28.274-23.036 28.274-43.66 0-20.624-11.914-38.049-28.274-43.66Zm-32.086-60.346v-23.283c0-6.25 3.813-11.764 9.425-14.52v3.79c0 5.562 4.872 10.09 10.855 10.09h.9c5.982 0 10.853-4.528 10.853-10.09v-3.79c5.613 2.756 9.424 8.22 9.424 14.52v23.283c0 6.25-3.81 11.764-9.424 14.52v-3.79c0-5.562-4.87-10.09-10.853-10.09h-.953c-5.983 0-10.855 4.528-10.855 10.09v3.79c-5.506-2.756-9.372-8.22-9.372-14.52Zm41.51 115.671c0 6.252-3.81 11.765-9.424 14.52v-5.561c0-5.562-4.87-10.09-10.853-10.09h-.9c-5.983 0-10.855 4.528-10.855 10.09v5.562c-5.612-2.756-9.425-8.22-9.425-14.52v-23.283c0-6.25 3.813-11.764 9.425-14.52v2.018c0 5.562 4.872 10.09 10.855 10.09h.953c5.982 0 10.853-4.528 10.853-10.09v-2.018c5.613 2.756 9.424 8.22 9.424 14.52v23.282h-.053ZM299.11 297.363c-.212-1.132-.476-2.215-.9-3.248.159-.247 35.314-45.777 2.754-73.932-32.51-28.155-70.472 8.565-70.684 8.762a90.541 90.541 0 0 0-18.16-3.348h-.054c-12.389-1.92-29.755 0-29.755 0a92.465 92.465 0 0 0-18.002 3.298c-.212-.197-38.174-36.916-70.683-8.761-32.509 28.155 2.594 73.734 2.753 73.931-.37 1.083-.688 2.166-.9 3.249C91.985 316.806 68 322.811 68 356.774c0 34.603 25.043 61.872 76.19 61.872h20.966c.106.098 8.207 10.83 24.938 11.469 0 0 3.865.393 12.76.098 17.737 0 26.367-11.37 26.42-11.518h20.967c51.145 0 76.188-27.268 76.188-61.872.16-33.914-23.825-39.968-27.319-59.46Z"/></svg>